<svg t="1585297699040" class="icon" viewBox="0 0 1024 1024" version="1.1" xmlns="http://www.w3.org/2000/svg" p-id="6451" width="200" height="200"><path d="M813.6 976.8h-179.2c-20.8 0-40-10.4-52.8-29.6-9.6-14.4-15.2-32-15.2-50.4V720c0-26.4-24.8-51.2-51.2-51.2-27.2 0-51.2 24-51.2 51.2v177.6c0 17.6-5.6 36-15.2 50.4-12.8 18.4-32 29.6-52.8 29.6H204.8c-20.8 0-40-10.4-52.8-29.6-9.6-14.4-15.2-32-15.2-50.4V518.4v-3.2H49.6c-16 0-36-9.6-43.2-28.8-5.6-14.4-6.4-36 21.6-62.4l1.6-0.8c48-40 134.4-112 218.4-180.8 80.8-67.2 164.8-136 209.6-173.6a83.84 83.84 0 0 1 57.6-22.4c20.8 0 41.6 8 56.8 22.4 48 40 135.2 112 219.2 181.6 84.8 70.4 165.6 136.8 209.6 173.6l0.8 0.8c20 17.6 27.2 40.8 19.2 62.4-6.4 17.6-23.2 29.6-40 29.6h-86.4V899.2c0 19.2-8.8 39.2-24.8 54.4-16.8 14.4-36.8 23.2-56 23.2z m-177.6-64h177.6c4.8-0.8 15.2-10.4 16-15.2V518.4c0-40 28-68 68-68h37.6C889.6 412.8 822.4 356.8 752 298.4c-84.8-70.4-172.8-143.2-220.8-182.4l-1.6-1.6c-3.2-3.2-8-5.6-12.8-5.6s-10.4 2.4-13.6 5.6l-1.6 1.6c-44.8 37.6-129.6 107.2-211.2 174.4-70.4 58.4-143.2 118.4-192.8 160H147.2c32.8 0 56 28.8 56 68v379.2c0 7.2 3.2 13.6 4.8 15.2h188c1.6-2.4 4.8-8 4.8-15.2V720c0-29.6 12.8-59.2 34.4-80.8s51.2-34.4 80.8-34.4c29.6 0 59.2 12.8 80.8 34.4s34.4 51.2 34.4 80.8v177.6c0 7.2 2.4 13.6 4.8 15.2z" fill="" p-id="6452"></path></svg>