<svg t="1585297880829" class="icon" viewBox="0 0 1024 1024" version="1.1" xmlns="http://www.w3.org/2000/svg" p-id="9172" width="200" height="200"><path d="M491.206904 1022.977023a52.285492 52.285492 0 0 1-23.528471-8.467976c-2.557443-1.363969-5.171717-2.784771-7.842824-4.091909a1006.382062 1006.382062 0 0 1-192.262848-128.554112 682.666667 682.666667 0 0 1-83.770452-85.248085 556.101676 556.101676 0 0 1-80.474193-131.50938l-3.068931-8.126984a224.998113 224.998113 0 0 1-16.481296-59.219003c-7.501832-65.413697-8.808969-132.759685-10.002442-197.83239l-0.852481-40.578089v-24.267288c0-10.684427 0-21.709846-0.340992-32.678433-0.28416-27.734044 0-55.922744 0-83.202131v-51.830836a64.049728 64.049728 0 0 1 18.754578-44.158508l4.376069-3.921412a45.465645 45.465645 0 0 1 11.366411-8.638472h0.681985c11.707404-6.649351 23.983128-12.730381 35.804196-18.640915 7.047175-3.523588 14.37851-7.160839 21.539349-10.854923a973.646798 973.646798 0 0 1 212.097236-68.482628c39.100455-5.683206 77.405261-10.457098 115.937396-11.934732h8.070152a758.935287 758.935287 0 0 1 218.746587 30.12099c20.800533 5.683206 41.544234 14.037518 61.549118 21.82351 9.206793 3.58042 18.754579 7.331335 28.416028 10.79809a718.925519 718.925519 0 0 1 90.931291 41.71473c2.784771 1.704962 5.683206 3.353091 8.354312 4.887557a81.213009 81.213009 0 0 1 20.118548 14.208014 89.339993 89.339993 0 0 1 21.937174 44.044844v249.20857a42.510379 42.510379 0 0 1-4.035076 22.221334v0.340992a29.666334 29.666334 0 0 1-26.029082 16.651793h-2.443778a27.90454 27.90454 0 0 1-20.686869-10.400267 33.758242 33.758242 0 0 1-8.29748-22.732822v-102.752359-150.775447l-4.035076-2.50061a276.090132 276.090132 0 0 0-27.62038-14.492175 366.964591 366.964591 0 0 1-19.493395-9.775114h-0.681985a906.641803 906.641803 0 0 0-212.551893-68.653124 716.709069 716.709069 0 0 0-112.413808-9.490954c-10.002442 0-19.948052 0-29.609502 0.795649-22.10767 1.250305-44.329004 4.262404-65.811521 7.160839l-5.683206 0.795649a321.61261 321.61261 0 0 0-43.021867 8.126984l-6.251526 1.477634a821.677878 821.677878 0 0 0-173.906094 59.389499c-9.94561 5.683206-20.45954 10.911755-30.632479 15.856144-5.114885 2.500611-10.400266 5.058053-15.571983 7.72916l-4.489733 2.273282v5.683205c-1.704962 97.069153 0 192.433344 1.307137 272.793873l0.966145 27.165723c1.193473 36.315684 2.500611 73.881674 6.763015 110.708847a131.50938 131.50938 0 0 0 7.956488 31.314463l2.614275 7.672328a425.50161 425.50161 0 0 0 75.075147 126.792319 731.94006 731.94006 0 0 0 167.143079 144.751249 1022.124542 1022.124542 0 0 0 97.580641 56.832057l0.568321 0.28416h0.568321a34.781219 34.781219 0 0 0 10.79809 1.477633h11.59374l1.307137-0.56832a878.282606 878.282606 0 0 0 183.73804-114.11877 247.674104 247.674104 0 0 0 37.509158-33.189922 224.031968 224.031968 0 0 0 23.414807-23.698967c5.683206-6.251526 10.911755-12.218892 16.708625-17.617938h0.28416v-0.28416a419.9889 419.9889 0 0 0 90.590299-162.312355 30.916639 30.916639 0 0 1 29.041181-22.732822 25.347097 25.347097 0 0 1 7.672327 1.193473h0.284161a32.280608 32.280608 0 0 1 21.994006 27.90454v0.397824a60.582973 60.582973 0 0 1-5.058054 27.165723l-2.21645 6.649351a497.791986 497.791986 0 0 1-94.852703 163.221667c-10.627595 10.854923-21.141525 22.164502-31.257631 33.076257l-10.798091 11.366412a148.445332 148.445332 0 0 0-13.526029 12.44622c-2.898435 2.898435-5.683206 5.683206-8.581641 8.240648-17.049617 14.492174-35.179043 29.439005-53.422133 42.624043-10.798091 8.126984-22.221334 15.856144-33.246753 23.301143-9.547786 6.422022-19.436563 13.071373-28.984349 20.118548l-9.831946 5.967366a842.421578 842.421578 0 0 1-87.86236 48.705073c-3.012099 1.250305-5.683206 2.671107-8.808969 4.091908a47.5116 47.5116 0 0 1-19.550227 6.478855h-34.099235z" p-id="9173"></path><path d="M350.490732 681.984682h-54.956599v-404.019092h54.956599z m100.138084 0v-404.019092h127.133311a170.950827 170.950827 0 0 1 127.246975 48.705073 171.348651 171.348651 0 0 1 48.136752 125.826173v55.24076a170.49617 170.49617 0 0 1-48.193584 125.826174 171.462315 171.462315 0 0 1-127.190143 48.420912z m54.672438-361.054057v318.259518h72.460873a111.447663 111.447663 0 0 0 88.373848-36.770341 138.386058 138.386058 0 0 0 32.337441-94.625374v-55.752248a137.533578 137.533578 0 0 0-32.337441-94.000222 111.447663 111.447663 0 0 0-88.373848-36.884005z" p-id="9174"></path></svg>