<svg t="1585297570579" class="icon" viewBox="0 0 1229 1024" version="1.1" xmlns="http://www.w3.org/2000/svg" p-id="5331" width="200" height="200"><path d="M786.199893 237.267627 674.85696 141.284693 1087.597227 141.284693C1108.964693 141.284693 1126.372693 158.692693 1126.372693 180.06016L1126.372693 237.267627 786.199893 237.267627ZM1126.372693 888.122027C1126.372693 909.55776 1108.964693 927.034027 1087.597227 927.034027L141.216427 927.034027C119.84896 927.034027 102.372693 909.55776 102.372693 888.122027L102.372693 107.15136C102.372693 85.715627 119.84896 68.23936 141.216427 68.23936L485.62176 68.23936 760.804693 305.534293 1126.372693 305.534293 1126.372693 888.122027ZM1087.597227 73.018027 595.667627 73.018027 511.01696-0.027307 141.216427-0.027307C82.16576-0.027307 34.106027 48.100693 34.106027 107.15136L34.106027 888.122027C34.106027 947.172693 82.16576 995.300693 141.216427 995.300693L1087.597227 995.300693C1146.647893 995.300693 1194.63936 947.172693 1194.63936 888.122027L1194.63936 252.96896 1194.63936 237.267627 1194.63936 180.06016C1194.63936 121.009493 1146.647893 73.018027 1087.597227 73.018027L1087.597227 73.018027Z" p-id="5332"></path></svg>